<?xml version="1.0" encoding="UTF-8"?>
<!DOCTYPE svg PUBLIC "-//W3C//DTD SVG 1.1//EN" "http://www.w3.org/Graphics/SVG/1.1/DTD/svg11.dtd">
<svg xmlns="http://www.w3.org/2000/svg" version="1.1" width="120px" height="120px" style="shape-rendering:geometricPrecision; text-rendering:geometricPrecision; image-rendering:optimizeQuality; fill-rule:evenodd; clip-rule:evenodd" xmlns:xlink="http://www.w3.org/1999/xlink">
<g><path style="opacity:1" fill="#f7f8f7" d="M -0.5,-0.5 C 39.5,-0.5 79.5,-0.5 119.5,-0.5C 119.5,39.5 119.5,79.5 119.5,119.5C 79.5,119.5 39.5,119.5 -0.5,119.5C -0.5,79.5 -0.5,39.5 -0.5,-0.5 Z"/></g>
<g><path style="opacity:1" fill="#326236" d="M 70.5,19.5 C 74.3948,19.8573 75.3948,21.8573 73.5,25.5C 71.0217,24.2776 70.0217,22.2776 70.5,19.5 Z"/></g>
<g><path style="opacity:1" fill="#346438" d="M 73.5,34.5 C 68.9904,35.501 65.4904,33.8343 63,29.5C 62.3333,28.5 62.3333,27.5 63,26.5C 67.6917,24.6481 71.6917,25.6481 75,29.5C 76.2692,24.5557 78.2692,24.2224 81,28.5C 82.9397,31.6941 82.773,34.6941 80.5,37.5C 87.8289,49.7206 86.9956,61.3872 78,72.5C 63.6856,83.7778 50.0189,83.1111 37,70.5C 28.6998,57.0593 29.8665,44.5593 40.5,33C 44.2211,30.4728 48.2211,28.4728 52.5,27C 53.3567,26.3109 54.0233,25.4776 54.5,24.5C 51.8938,23.3483 49.2272,23.1816 46.5,24C 45.0439,24.4226 44.5439,25.2559 45,26.5C 46.7261,25.4238 48.5594,25.2571 50.5,26C 47.5424,26.2293 45.0424,27.396 43,29.5C 41.729,25.8339 42.8956,23.3339 46.5,22C 49.7577,21.7883 52.9243,21.2883 56,20.5C 56.4838,22.9129 56.1505,25.2462 55,27.5C 42.4148,31.2521 34.9148,39.5854 32.5,52.5C 34.1133,54.0879 36.1133,55.0879 38.5,55.5C 38.8072,54.1125 38.8072,52.4458 38.5,50.5C 39.8333,50.5 41.1667,50.5 42.5,50.5C 42.7135,52.1439 42.3802,53.6439 41.5,55C 42.7932,55.49 44.1266,55.6567 45.5,55.5C 44.8304,45.4909 49.1637,38.8242 58.5,35.5C 66.6864,38.2046 70.6864,43.8713 70.5,52.5C 72.1992,52.6602 73.8659,52.4935 75.5,52C 73.6751,50.5341 73.1751,48.7008 74,46.5C 75.1131,47.7111 76.2798,47.7111 77.5,46.5C 78.8485,48.6114 78.5152,50.4447 76.5,52C 78.8127,52.662 81.146,53.162 83.5,53.5C 83.5456,45.2526 80.2123,38.9192 73.5,34.5 Z"/></g>
<g><path style="opacity:1" fill="#f1f3f2" d="M 56.5,37.5 C 62.1879,38.0105 66.0212,41.0105 68,46.5C 68.4986,50.1516 68.6653,53.8183 68.5,57.5C 67.1667,57.5 65.8333,57.5 64.5,57.5C 64.5,54.5 64.5,51.5 64.5,48.5C 60.5,48.5 56.5,48.5 52.5,48.5C 52.5,52.1667 52.5,55.8333 52.5,59.5C 50.8333,59.5 49.1667,59.5 47.5,59.5C 46.6977,53.0713 47.8644,47.0713 51,41.5C 53.167,40.5119 55.0003,39.1786 56.5,37.5 Z"/></g>
<g><path style="opacity:1" fill="#19511e" d="M 60.5,41.5 C 60.5,42.8333 60.5,44.1667 60.5,45.5C 59.1667,45.5 57.8333,45.5 56.5,45.5C 56.5,44.1667 56.5,42.8333 56.5,41.5C 57.8333,41.5 59.1667,41.5 60.5,41.5 Z"/></g>
<g><path style="opacity:1" fill="#96ad98" d="M 57.5,42.5 C 59.337,42.6395 59.6704,43.3061 58.5,44.5C 57.7025,44.0431 57.3691,43.3764 57.5,42.5 Z"/></g>
<g><path style="opacity:1" fill="#628a68" d="M 60.5,41.5 C 59.1667,41.5 57.8333,41.5 56.5,41.5C 56.5,42.8333 56.5,44.1667 56.5,45.5C 57.8333,45.5 59.1667,45.5 60.5,45.5C 59.0813,46.4511 57.4147,46.7845 55.5,46.5C 55.5,44.5 55.5,42.5 55.5,40.5C 57.4147,40.2155 59.0813,40.5489 60.5,41.5 Z"/></g>
<g><path style="opacity:1" fill="#dee5e0" d="M 73.5,34.5 C 69.4546,34.1296 66.4546,32.1296 64.5,28.5C 67.2392,27.2327 69.9058,27.3994 72.5,29C 73.4506,29.7175 73.6172,30.5509 73,31.5C 71.6626,30.2351 70.1626,29.7351 68.5,30C 70.6175,31.0491 72.2842,32.5491 73.5,34.5 Z"/></g>
<g><path style="opacity:1" fill="#edf0ed" d="M 80.5,37.5 C 77.7636,35.1421 76.9302,32.1421 78,28.5C 80.1049,31.1066 80.9383,34.1066 80.5,37.5 Z"/></g>
<g><path style="opacity:1" fill="#c5d3c8" d="M 55.5,50.5 C 57.0348,49.2121 58.7015,49.2121 60.5,50.5C 58.9626,52.9302 57.296,52.9302 55.5,50.5 Z"/></g>
<g><path style="opacity:1" fill="#eaedea" d="M 54.5,52.5 C 56.898,53.8823 57.0647,55.549 55,57.5C 54.5065,55.8659 54.3398,54.1992 54.5,52.5 Z"/></g>
<g><path style="opacity:1" fill="#b9c9bc" d="M 61.5,51.5 C 62.6129,52.9464 62.7796,54.6131 62,56.5C 60.2116,54.9769 60.0449,53.3102 61.5,51.5 Z"/></g>
<g><path style="opacity:1" fill="#e6ebe8" d="M 70.5,54.5 C 74.8814,54.3718 79.2147,54.7051 83.5,55.5C 83.5,56.5 83.5,57.5 83.5,58.5C 79.19,57.9198 74.8566,57.5865 70.5,57.5C 70.5,56.5 70.5,55.5 70.5,54.5 Z"/></g>
<g><path style="opacity:1" fill="#dfe6df" d="M 39.5,58.5 C 41.3635,57.2072 43.3635,57.2072 45.5,58.5C 43.5405,59.5192 41.5405,59.5192 39.5,58.5 Z"/></g>
<g><path style="opacity:1" fill="#eef1ef" d="M 33.5,57.5 C 36.4788,58.6535 39.4788,59.8202 42.5,61C 49.5,61.3333 56.5,61.6667 63.5,62C 66.29,62.5609 68.6234,63.8942 70.5,66C 69.3349,67.0836 68.0016,67.9169 66.5,68.5C 65.0878,67.1936 63.4211,66.3603 61.5,66C 54.8333,65.6667 48.1667,65.3333 41.5,65C 36.9866,64.3166 34.3199,61.8166 33.5,57.5 Z"/></g>
<g><path style="opacity:1" fill="#b1c3b2" d="M 57.5,56.5 C 58.7562,56.4614 59.7562,56.9614 60.5,58C 56.2898,60.376 55.2898,59.876 57.5,56.5 Z"/></g>
<g><path style="opacity:1" fill="#eef1ef" d="M 63.5,60.5 C 66.1459,59.8356 68.9792,59.5022 72,59.5C 75.6197,59.4158 79.1197,59.9158 82.5,61C 81.5704,61.9907 80.4038,62.4907 79,62.5C 73.8257,61.7996 68.6591,61.1329 63.5,60.5 Z"/></g>
<g><path style="opacity:1" fill="#e1e8e2" d="M 71.5,64.5 C 74.5299,63.1634 77.5299,63.4967 80.5,65.5C 80.1667,66.5 79.5,67.1667 78.5,67.5C 75.8437,67.0398 73.5104,66.0398 71.5,64.5 Z"/></g>
<g><path style="opacity:1" fill="#eef1ef" d="M 35.5,65.5 C 35.56,64.9569 35.8933,64.6236 36.5,64.5C 38.6666,65.7919 40.9999,66.6253 43.5,67C 49.5,67.3333 55.5,67.6667 61.5,68C 66.2763,69.0708 66.7763,71.2375 63,74.5C 61.8289,73.1068 60.3289,72.2735 58.5,72C 52.5,71.6667 46.5,71.3333 40.5,71C 38.5981,69.2703 36.9314,67.437 35.5,65.5 Z"/></g>
<g><path style="opacity:1" fill="#e4e9e5" d="M 69.5,68.5 C 72.2469,68.1866 74.9135,68.52 77.5,69.5C 77.3333,69.8333 77.1667,70.1667 77,70.5C 71.6156,70.5402 67.7823,73.0402 65.5,78C 64.5,78.6667 63.5,78.6667 62.5,78C 64.4765,74.5369 66.8098,71.3702 69.5,68.5 Z"/></g>
<g><path style="opacity:1" fill="#ecefed" d="M 43.5,74.5 C 48.6503,73.3493 53.9836,73.1826 59.5,74C 62.3158,77.399 61.3158,78.899 56.5,78.5C 51.7993,78.2434 47.466,76.91 43.5,74.5 Z"/></g>
<g><path style="opacity:1" fill="#b9caba" d="M 70.5,73.5 C 71.2389,73.369 71.9056,73.5357 72.5,74C 71.5342,75.6779 70.2009,76.3446 68.5,76C 69.3805,75.2917 70.0472,74.4584 70.5,73.5 Z"/></g>
<g><path style="opacity:1" fill="#19511f" d="M 3.5,87.5 C 5.5273,87.3379 7.5273,87.5045 9.5,88C 7.86586,88.4935 6.19919,88.6602 4.5,88.5C 4.5,89.8333 4.5,91.1667 4.5,92.5C 11.1667,92.8333 11.1667,93.1667 4.5,93.5C 4.5,94.8333 4.5,96.1667 4.5,97.5C 6.19919,97.3398 7.86586,97.5065 9.5,98C 7.5273,98.4955 5.5273,98.6621 3.5,98.5C 3.5,94.8333 3.5,91.1667 3.5,87.5 Z"/></g>
<g><path style="opacity:1" fill="#3b6a3f" d="M 86.5,93.5 C 84.4347,88.3964 86.1013,86.563 91.5,88C 92.5171,89.0495 92.6838,90.2161 92,91.5C 90.6667,92.1667 89.6667,93.1667 89,94.5C 88.3292,93.7476 87.4959,93.4142 86.5,93.5 Z"/></g>
<g><path style="opacity:1" fill="#316336" d="M 31.5,87.5 C 33.5273,87.3379 35.5273,87.5045 37.5,88C 38.4506,88.7175 38.6172,89.5509 38,90.5C 32.4813,87.3341 30.148,89.0008 31,95.5C 33.2565,98.1192 35.4232,98.1192 37.5,95.5C 36.9747,94.8076 36.3081,94.3076 35.5,94C 36.7932,93.51 38.1266,93.3433 39.5,93.5C 38.8258,98.1514 36.1592,99.6514 31.5,98C 28.8805,94.5019 28.8805,91.0019 31.5,87.5 Z"/></g>
<g><path style="opacity:1" fill="#edf0ed" d="M 87.5,88.5 C 88.5,88.5 89.5,88.5 90.5,88.5C 90.5,89.5 90.5,90.5 90.5,91.5C 89.5,91.5 88.5,91.5 87.5,91.5C 87.5,90.5 87.5,89.5 87.5,88.5 Z"/></g>
<g><path style="opacity:1" fill="#6c9070" d="M 47.5,91.5 C 46.5326,92.8062 45.1993,93.4729 43.5,93.5C 43.9175,92.7784 44.5842,92.2784 45.5,92C 43.7928,91.8047 42.1261,91.8047 40.5,92C 42.8073,88.9871 45.1406,88.8204 47.5,91.5 Z"/></g>
<g><path style="opacity:1" fill="#416d44" d="M 76.5,89.5 C 77.8221,89.33 78.9887,89.6634 80,90.5C 80.6667,93.1667 80.6667,95.8333 80,98.5C 79.6667,96.5 79.3333,94.5 79,92.5C 77.6667,91.1667 76.3333,91.1667 75,92.5C 74.6667,94.5 74.3333,96.5 74,98.5C 73.5026,95.854 73.3359,93.1873 73.5,90.5C 74.791,90.7373 75.791,90.404 76.5,89.5 Z"/></g>
<g><path style="opacity:1" fill="#5b8161" d="M 49.5,89.5 C 51.288,89.2148 52.9547,89.5481 54.5,90.5C 53.675,91.3857 52.675,91.719 51.5,91.5C 51.8076,93.924 51.4742,96.2573 50.5,98.5C 49.5159,95.5719 49.1826,92.5719 49.5,89.5 Z"/></g>
<g><path style="opacity:1" fill="#3e6b41" d="M 13.5,89.5 C 17.1378,88.7366 18.6378,90.0699 18,93.5C 15.4679,90.628 13.6345,90.9613 12.5,94.5C 13.6345,98.0387 15.4679,98.372 18,95.5C 18.6172,96.4491 18.4506,97.2825 17.5,98C 11.9202,99.261 10.0868,97.0943 12,91.5C 12.7172,90.9558 13.2172,90.2891 13.5,89.5 Z"/></g>
<g><path style="opacity:1" fill="#38683d" d="M 22.5,89.5 C 23.9305,89.4208 25.2638,89.7542 26.5,90.5C 29.1572,96.9485 27.3238,99.2818 21,97.5C 20.1093,94.5024 20.6093,91.8357 22.5,89.5 Z"/></g>
<g><path style="opacity:1" fill="#eaeeea" d="M 22.5,91.5 C 26.35,91.7007 27.35,93.5341 25.5,97C 21.5369,97.1177 20.5369,95.2843 22.5,91.5 Z"/></g>
<g><path style="opacity:1" fill="#4c7651" d="M 100.5,89.5 C 103.524,89.3642 105.024,90.6975 105,93.5C 103.556,91.8446 101.722,91.178 99.5,91.5C 98.6779,97.2093 100.511,98.5427 105,95.5C 105.456,97.7132 104.456,98.7132 102,98.5C 96.5749,96.4501 96.0749,93.4501 100.5,89.5 Z"/></g>
<g><path style="opacity:1" fill="#4a754e" d="M 60.5,97.5 C 54.7451,98.5318 53.2451,96.1985 56,90.5C 58.0363,89.898 59.8697,88.898 61.5,87.5C 62.6586,91.122 62.8253,94.7887 62,98.5C 61.6174,97.944 61.1174,97.6107 60.5,97.5 Z"/></g>
<g><path style="opacity:1" fill="#f0f3f1" d="M 60.5,97.5 C 56.9319,97.2407 55.5985,95.2407 56.5,91.5C 57.8333,91.5 59.1667,91.5 60.5,91.5C 60.5,93.5 60.5,95.5 60.5,97.5 Z"/></g>
<g><path style="opacity:1" fill="#46714a" d="M 65.5,91.5 C 69.0181,88.6176 71.0181,89.6176 71.5,94.5C 69.396,94.2011 67.396,94.5344 65.5,95.5C 67.2358,98.1047 69.0692,98.1047 71,95.5C 71.6172,96.4491 71.4506,97.2825 70.5,98C 64.7465,98.987 63.0798,96.8204 65.5,91.5 Z"/></g>
<g><path style="opacity:1" fill="#a9c0ad" d="M 65.5,91.5 C 66.9778,91.238 68.3112,91.5713 69.5,92.5C 68.8333,92.8333 68.1667,93.1667 67.5,93.5C 66.2867,93.2528 65.62,92.5862 65.5,91.5 Z"/></g>
<g><path style="opacity:1" fill="#507a55" d="M 108.5,89.5 C 113.172,89.4882 115.006,91.8215 114,96.5C 111.602,99.0544 109.269,99.0544 107,96.5C 106.167,93.829 106.667,91.4957 108.5,89.5 Z"/></g>
<g><path style="opacity:1" fill="#f5f6f5" d="M 108.5,91.5 C 109.833,91.5 111.167,91.5 112.5,91.5C 112.949,93.9775 112.283,95.9775 110.5,97.5C 108.717,95.9775 108.051,93.9775 108.5,91.5 Z"/></g>
<g><path style="opacity:1" fill="#326134" d="M 47.5,91.5 C 47.5,93.8333 47.5,96.1667 47.5,98.5C 45.5,98.5 43.5,98.5 41.5,98.5C 41.2322,96.901 41.5655,95.5676 42.5,94.5C 42.5,93.8333 42.8333,93.5 43.5,93.5C 45.1993,93.4729 46.5326,92.8062 47.5,91.5 Z"/></g>
<g><path style="opacity:1" fill="#e6ece7" d="M 42.5,94.5 C 43.9778,94.238 45.3112,94.5713 46.5,95.5C 45.6798,97.1112 44.3464,97.7778 42.5,97.5C 42.5,96.5 42.5,95.5 42.5,94.5 Z"/></g>
<g><path style="opacity:1" fill="#36673c" d="M 86.5,93.5 C 86.5,94.8333 86.5,96.1667 86.5,97.5C 83.8333,96.1667 83.8333,94.8333 86.5,93.5 Z"/></g>
<g><path style="opacity:1" fill="#38673c" d="M 86.5,97.5 C 89.5092,97.577 91.6759,96.2437 93,93.5C 93.4935,95.1341 93.6602,96.8008 93.5,98.5C 90.9407,98.8016 88.6074,98.4682 86.5,97.5 Z"/></g>
</svg>
