<svg width="19" height="19" viewBox="0 0 19 19" fill="none" xmlns="http://www.w3.org/2000/svg">
<rect width="19" height="19" rx="3.06452" fill="#497555"/>
<path d="M9.632 5.336C10.16 5.336 10.588 5.416 10.916 5.576C11.244 5.728 11.544 5.908 11.816 6.116C11.92 6.196 12 6.236 12.056 6.236C12.208 6.236 12.308 5.992 12.356 5.504H12.632C12.616 5.808 12.604 6.176 12.596 6.608C12.588 7.032 12.584 7.6 12.584 8.312H12.308C12.252 7.928 12.176 7.572 12.08 7.244C11.992 6.916 11.836 6.636 11.612 6.404C11.396 6.148 11.112 5.948 10.76 5.804C10.416 5.66 10.064 5.588 9.704 5.588C9.288 5.588 8.92 5.692 8.6 5.9C8.28 6.1 8.008 6.388 7.784 6.764C7.568 7.14 7.4 7.584 7.28 8.096C7.168 8.6 7.112 9.156 7.112 9.764C7.112 11.204 7.332 12.26 7.772 12.932C8.22 13.596 8.892 13.928 9.788 13.928C10.044 13.928 10.264 13.892 10.448 13.82C10.64 13.748 10.792 13.676 10.904 13.604C11.04 13.508 11.128 13.416 11.168 13.328C11.208 13.232 11.228 13.108 11.228 12.956V11.792C11.228 11.448 11.196 11.196 11.132 11.036C11.076 10.868 10.96 10.756 10.784 10.7C10.608 10.636 10.352 10.6 10.016 10.592V10.352C10.168 10.36 10.348 10.368 10.556 10.376C10.764 10.376 10.98 10.38 11.204 10.388C11.436 10.388 11.644 10.388 11.828 10.388C12.116 10.388 12.376 10.384 12.608 10.376C12.848 10.368 13.044 10.36 13.196 10.352V10.592C13.028 10.6 12.9 10.628 12.812 10.676C12.732 10.724 12.676 10.82 12.644 10.964C12.62 11.108 12.608 11.328 12.608 11.624V14H12.368C12.36 13.864 12.328 13.716 12.272 13.556C12.224 13.396 12.148 13.316 12.044 13.316C11.988 13.316 11.928 13.328 11.864 13.352C11.808 13.376 11.708 13.436 11.564 13.532C11.284 13.724 10.992 13.88 10.688 14C10.384 14.112 10.04 14.168 9.656 14.168C8.8 14.168 8.068 14 7.46 13.664C6.852 13.32 6.388 12.828 6.068 12.188C5.756 11.54 5.6 10.772 5.6 9.884C5.6 8.956 5.772 8.152 6.116 7.472C6.468 6.792 6.944 6.268 7.544 5.9C8.152 5.524 8.848 5.336 9.632 5.336Z" fill="white" fill-opacity="0.9"/>
</svg>

